<svg width="100" height="98" viewBox="0 0 100 98" fill="none" xmlns="http://www.w3.org/2000/svg">
<path d="M42.0032 76.9877C36.9585 85.9081 31.5909 94.3517 25.7926 102.78C23.4241 106.21 20.9787 109.624 18.3641 112.992C17.7797 113.761 17.1952 114.53 16.5954 115.268L14.9498 117.422C13.8424 118.76 12.7043 120.098 11.4893 121.451C9.48648 123.727 7.31702 125.85 4.99889 127.803C3.16462 129.375 1.08678 130.637 -1.15311 131.541C-1.65648 131.728 -2.16995 131.887 -2.69111 132.017C-3.30863 132.174 -3.93529 132.292 -4.56747 132.371C-5.05963 132.371 -5.55179 132.463 -6.10547 132.463C-6.65915 132.463 -6.95135 132.463 -7.38199 132.463C-8.72289 132.356 -10.0482 132.103 -11.3347 131.71C-13.1241 131.119 -14.8501 130.352 -16.487 129.418C-17.9173 128.618 -19.1938 127.803 -20.4088 126.957C-24.8041 123.791 -28.9439 120.283 -32.7898 116.468C-39.5408 109.538 -45.3295 101.732 -50 93.2597L-45.386 86.3233C-41.5564 89.2917 -37.3269 92.4753 -33.4204 95.3514C-29.5138 98.2274 -25.8841 101.15 -21.9622 103.872C-18.205 106.381 -14.2846 108.636 -10.2273 110.624C-9.48906 110.993 -8.76619 111.347 -8.10485 111.639C-6.94282 110.403 -5.84432 109.11 -4.81355 107.763C-3.46011 106.025 -2.0913 104.179 -0.737862 102.272C1.95364 98.4581 4.61441 94.444 7.22901 90.399C12.4736 82.3091 17.6413 73.8963 22.7474 65.791L42.0032 76.9877Z" fill="#EC714C"/>
<path d="M101.585 194.429C65.9037 198.444 31.8677 195.706 13.4117 192.63C14.3345 183.51 20.0405 72.912 22.3629 66.5139C24.5161 60.5773 34.6669 57.6858 41.8186 56.5016C43.5565 56.2093 45.1099 56.0094 46.4326 55.9017C53.2318 55.3619 60.0561 55.2079 66.8726 55.4403C70.287 55.5326 73.7475 55.671 77.1772 55.8402C82.1757 56.0709 84.4673 56.2555 88.2354 56.7169C93.9876 57.4244 97.9864 61.9615 97.4634 69.3131C96.7406 78.9102 96.4022 88.492 96.3407 97.8738C96.3407 100.35 96.3407 102.795 96.3407 105.241C96.4638 148.028 102.016 184.94 101.585 194.429Z" fill="#EC714C"/>
<path opacity="0.5" d="M101.585 194.429C65.9037 198.444 31.8677 195.706 13.4117 192.63C14.3345 183.51 20.0405 72.912 22.3629 66.5139C24.5161 60.5773 34.6669 57.6858 41.8186 56.5016C43.5565 56.2093 45.1099 56.0094 46.4326 55.9017C53.2318 55.3619 60.0561 55.2079 66.8726 55.4403C70.287 55.5326 73.7475 55.671 77.1772 55.8402C82.1757 56.0709 84.4673 56.2555 88.2354 56.7169C93.9876 57.4244 97.9864 61.9615 97.4634 69.3131C96.7406 78.9102 96.4022 88.492 96.3407 97.8738C96.3407 100.35 96.3407 102.795 96.3407 105.241C96.4638 148.028 102.016 184.94 101.585 194.429Z" fill="white"/>
<path d="M98.0018 150.981L105.061 160.685C114.683 155.184 123.907 149.017 132.668 142.229C134.883 140.491 137.113 138.692 139.297 136.677C141.733 134.523 143.972 132.155 145.987 129.602C146.626 128.763 147.212 127.885 147.741 126.972C148.518 125.665 149.113 124.257 149.509 122.789C149.668 122.251 149.782 121.701 149.848 121.143C149.953 120.467 150.004 119.783 150.002 119.098C149.998 118.686 149.968 118.275 149.909 117.868C149.909 117.437 149.802 117.006 149.709 116.56C149.602 116.07 149.463 115.587 149.294 115.115L149.048 114.407L148.879 114.023L148.51 113.254L148.202 112.684L147.91 112.162L147.648 111.746C147.295 111.177 147.018 110.777 146.726 110.331C145.588 108.793 144.619 107.548 143.65 106.379C142.681 105.21 141.712 104.102 140.758 103.026C136.913 98.7809 133.068 94.8744 129.177 90.9987C125.286 87.1229 121.349 83.3087 117.335 79.6944C109.645 72.4965 101.708 65.5294 93.4801 58.8545C93.0437 58.4992 92.5043 58.2943 91.9421 58.27H91.6191C79.3151 58.3623 74.0244 74.1268 83.314 82.2474C89.266 87.4613 95.3411 92.5982 101.37 97.7197L113.382 108.04C117.411 111.454 121.395 114.915 125.117 118.314C126.009 119.144 126.901 119.959 127.716 120.759C127.07 121.62 126.332 122.528 125.594 123.404C124.056 125.235 122.333 127.111 120.58 128.972C113.505 136.385 105.692 143.721 98.0018 150.981Z" fill="#EC714C"/>
<path d="M66.7496 55.3788C64.135 59.839 56.9833 69.3746 46.6018 69.4054C38.9118 69.4054 39.6808 60.3927 41.7571 56.44C43.495 56.1478 45.0484 55.9479 46.3711 55.8402C53.1498 55.3027 59.9535 55.1487 66.7496 55.3788Z" fill="#EC714C"/>
<path d="M40.3422 0.549057C50.0623 -0.466023 53.1229 0.872025 58.0599 4.11721C61.2897 6.23965 65.9499 10.4999 66.7496 15.6368C69.1797 31.2937 57.9984 37.0304 57.9984 37.0304L27.546 19.7741C27.546 19.7741 19.3485 9.19262 27.223 1.91788C31.1757 -1.74256 35.4975 1.0566 40.3422 0.549057Z" fill="#263238"/>
<path d="M42.8953 48.8267C42.8892 48.8623 42.8892 48.8988 42.8953 48.9344L44.4333 54.3943C44.5404 55.4939 44.5404 56.6013 44.4333 57.701C44.4105 58.593 44.3231 59.4823 44.1718 60.3617C43.5258 62.2688 43.249 66.0216 46.7095 65.7447C52.0925 65.3295 61.9511 57.7779 62.2894 55.4094C59.7363 48.0423 57.5832 39.4449 57.9369 32.3394L51.7849 39.045L42.8953 48.8267Z" fill="#FFC3BD"/>
<g opacity="0.2">
<path d="M42.9414 48.9497L44.4794 54.4097C47.8476 52.8717 51.3543 49.5034 52.1694 45.9045C52.7231 43.3053 51.5388 40.8906 50.4929 40.7676L42.9414 48.9497Z" fill="black"/>
</g>
<path d="M29.1916 37.5995C29.5146 38.7838 29.8837 39.9527 30.2836 41.1062C33.7595 51.2877 46.3557 52.1183 54.138 44.5359C54.852 43.8556 55.5055 43.1146 56.0912 42.3212C61.0128 35.7386 59.7363 30.7093 58.8904 19.2512C58.729 16.5944 57.8903 14.0232 56.4541 11.7822C55.018 9.54119 53.0321 7.70505 50.6857 6.44857C48.3392 5.19209 45.7103 4.55709 43.049 4.60398C40.3877 4.65088 37.7828 5.37812 35.482 6.71648C25.9772 12.1918 25.9003 25.7262 29.1916 37.5995Z" fill="#FFC3BD"/>
<path d="M28.9763 36.7841C28.9763 36.7841 29.2993 49.5034 36.9278 51.6412C42.8952 53.333 52.7384 50.703 53.5382 42.2286C54.2764 34.5386 54.3995 27.064 54.3995 27.064L51.5849 27.6792C51.5849 27.6792 47.6938 33.8312 46.0789 34.1234C44.464 34.4156 43.9257 32.4931 36.1434 33.8465C30.4836 34.8308 28.9763 36.7841 28.9763 36.7841Z" fill="#263238"/>
<path d="M34.0671 38.3377C36.7085 37.4854 39.3014 36.4893 41.8341 35.354C41.9708 36.4477 41.686 37.5525 41.0376 38.4438C40.3891 39.3351 39.4255 39.9461 38.3428 40.1526C37.5298 40.3376 36.6792 40.2619 35.9117 39.9361C35.1442 39.6103 34.4988 39.0511 34.0671 38.3377Z" fill="white"/>
<path d="M51.6003 16.4365C54.4764 17.144 51.6003 27.6793 51.6003 27.6793L55.6607 26.8026C55.6607 26.8026 55.3531 26.4181 55.4915 23.4652C55.6299 20.5122 59.0596 20.3892 59.0596 20.3892C59.0596 20.3892 59.9055 11.8379 55.4453 6.54719C50.9851 1.25647 40.0654 2.02548 34.6516 5.71668C31.2486 8.29458 28.9115 12.033 28.0844 16.2212C28.0844 16.2212 31.8063 10.8844 33.452 10.8844C35.0976 10.8844 33.5442 13.1452 35.2668 13.0991C38.5889 13.0068 40.1422 7.90063 45.4483 9.14641C50.7544 10.3922 44.787 14.7447 51.6003 16.4365Z" fill="#263238"/>
<path d="M64.7963 26.1566C64.3603 28.9988 62.8177 31.5531 60.5053 33.2622C57.4293 35.5076 54.5532 33.0622 54.3533 29.4633C54.1226 26.2181 55.4607 21.1427 59.0904 20.3276C59.887 20.166 60.7114 20.2055 61.489 20.4426C62.2666 20.6797 62.9728 21.1069 63.5438 21.6855C64.1148 22.2641 64.5325 22.976 64.7593 23.7566C64.986 24.5373 65.0146 25.3621 64.8425 26.1566" fill="#FFC3BD"/>
<path d="M42.0339 27.0181C42.1569 27.9101 41.7878 28.7099 41.2034 28.7868C40.619 28.8637 40.0499 28.2023 39.9268 27.2488C39.8038 26.2952 40.1729 25.5724 40.7574 25.4801C41.3418 25.3878 41.9262 26.0645 42.0339 27.0181Z" fill="#263238"/>
<path d="M32.2369 28.233C32.3599 29.1251 31.9908 29.9095 31.4064 29.9864C30.8219 30.0633 30.2375 29.4019 30.1298 28.4484C30.0222 27.4948 30.3759 26.7719 30.9604 26.695C31.5448 26.6181 32.1138 27.2795 32.2369 28.233Z" fill="#263238"/>
<path d="M28.438 24.8188C28.5194 24.8124 28.5974 24.783 28.6628 24.734C28.7281 24.6849 28.7782 24.6184 28.8071 24.5419C28.9036 24.2359 29.0629 23.9534 29.2747 23.7124C29.4866 23.4714 29.7464 23.2773 30.0375 23.1424C30.6369 22.9141 31.2992 22.9141 31.8985 23.1424C32.0107 23.1885 32.1366 23.1885 32.2489 23.1424C32.3612 23.0964 32.4508 23.0079 32.4983 22.8963C32.5237 22.8419 32.5379 22.783 32.54 22.723C32.5421 22.6631 32.5321 22.6033 32.5106 22.5473C32.489 22.4913 32.4564 22.4402 32.4146 22.3971C32.3729 22.354 32.3229 22.3198 32.2676 22.2965C31.4345 21.9852 30.5169 21.9852 29.6838 22.2965C29.2814 22.4795 28.9209 22.7433 28.6247 23.0713C28.3284 23.3994 28.1025 23.7847 27.9612 24.2036C27.9387 24.2581 27.9272 24.3165 27.9274 24.3755C27.9276 24.4344 27.9394 24.4928 27.9623 24.5472C27.9852 24.6015 28.0186 24.6508 28.0607 24.6921C28.1027 24.7335 28.1526 24.7661 28.2073 24.788C28.2797 24.82 28.3597 24.8307 28.438 24.8188Z" fill="#263238"/>
<path d="M44.1718 23.0037C44.2453 23.0015 44.3158 22.9744 44.3718 22.9268C44.4691 22.8611 44.5367 22.7596 44.5597 22.6445C44.5828 22.5293 44.5594 22.4096 44.4948 22.3116C43.9875 21.5798 43.225 21.0642 42.357 20.8659C41.9196 20.7961 41.4725 20.8174 41.0437 20.9285C40.6149 21.0397 40.2138 21.2383 39.8654 21.5118C39.7684 21.5854 39.7031 21.6933 39.6831 21.8134C39.6631 21.9335 39.6898 22.0567 39.7578 22.1578C39.8286 22.2537 39.9338 22.3185 40.0513 22.3386C40.1689 22.3587 40.2897 22.3324 40.3883 22.2654C40.6367 22.0607 40.925 21.9099 41.2347 21.8226C41.5445 21.7352 41.869 21.7132 42.1878 21.7579C42.8036 21.9233 43.3456 22.2918 43.7258 22.8037C43.7694 22.8799 43.8361 22.9403 43.9163 22.9763C43.9964 23.0122 44.0859 23.0218 44.1718 23.0037Z" fill="#263238"/>
<path d="M36.005 25.1572C35.2253 27.8466 34.0541 30.4066 32.5291 32.7549C32.2984 33.0933 36.4202 33.7854 36.4202 33.7854L36.005 25.1572Z" fill="#ED847E"/>
</svg>
