<svg width="95" height="99" viewBox="0 0 95 99" fill="none" xmlns="http://www.w3.org/2000/svg">
<path d="M76.1563 120.311C75.9017 125.624 76.092 130.948 76.7253 136.229C76.9253 138.444 77.1406 140.751 77.3405 143.12C78.1557 152.963 78.7401 163.929 76.8176 174.095C76.6766 174.86 76.3345 175.574 75.8263 176.163C75.3182 176.752 74.6623 177.196 73.9262 177.448C63.9907 180.678 29.8163 179.17 3.90103 172.834C3.30706 172.7 2.74553 172.449 2.24881 172.097C1.75208 171.745 1.33 171.298 1.00688 170.782C0.68376 170.265 0.465998 169.69 0.366155 169.09C0.266313 168.489 0.286359 167.874 0.425142 167.282C2.78967 155.711 4.08194 143.946 4.28553 132.138C4.28553 130.247 4.3778 128.339 4.39318 126.355C4.42355 112.109 3.49868 97.8758 1.62479 83.7528C1.37092 81.7046 1.52331 79.6264 2.07324 77.6371C2.62318 75.6478 3.55986 73.7865 4.82974 72.1595C6.09961 70.5325 7.67776 69.1718 9.47393 68.1552C11.2701 67.1387 13.2491 66.4861 15.2976 66.235C17.7584 65.9581 20.3423 65.6967 22.9876 65.5429C32.3264 64.727 41.7115 64.5779 51.0715 65.0968C54.1475 65.3122 57.2235 65.6505 60.2995 66.0197C65.5407 66.6583 70.3533 69.2345 73.7914 73.2417C77.2294 77.249 79.044 82.3973 78.8785 87.6747C78.3095 101.886 89.4446 110.068 76.1563 120.311Z" fill="#263238"/>
<path opacity="0.2" d="M20.1269 90.4585C20.1269 90.4585 20.7421 108.238 25.1869 115.066L16.3434 113.344C16.3434 113.344 16.6818 97.9486 20.1269 90.4585Z" fill="black"/>
<path d="M52.7787 89.951C53.6173 89.9563 54.4415 89.733 55.1626 89.3051C62.5758 85.0141 54.5474 65.3123 54.1937 64.4818C54.1385 64.3636 54.04 64.2712 53.9185 64.2238C53.7971 64.1763 53.662 64.1774 53.5413 64.2269C53.4207 64.2763 53.3237 64.3703 53.2705 64.4894C53.2173 64.6084 53.2119 64.7434 53.2555 64.8663C53.3324 65.0662 61.2993 84.5834 54.6551 88.4284C54.1596 88.7111 53.6085 88.8824 53.04 88.9302C52.4715 88.978 51.8995 88.9013 51.3638 88.7053C43.2278 86.1983 32.7693 64.6663 32.6617 64.451C32.5959 64.3425 32.4919 64.2627 32.3701 64.2271C32.2484 64.1915 32.1177 64.2028 32.0039 64.2588C31.89 64.3147 31.8013 64.4113 31.7551 64.5294C31.7089 64.6475 31.7086 64.7787 31.7543 64.897C32.1849 65.8044 42.5203 87.0442 51.0562 89.6742C51.6132 89.8524 52.1939 89.9457 52.7787 89.951Z" fill="white"/>
<path d="M67.9433 35.8596C67.9433 35.8596 74.6183 23.448 65.0827 15.0505C55.5471 6.65302 39.3673 8.82159 32.3848 19.2185C25.4023 29.6154 28.063 42.9344 34.538 47.61C39.9364 51.5011 39.152 55.6691 39.152 55.6691L67.9433 35.8596Z" fill="#263238"/>
<path d="M46.5805 10.8671C46.5805 2.19281 32.3847 -3.14406 24.1411 2.039C12.7137 9.23684 22.7415 19.603 20.6498 25.5858C18.5581 31.5686 10.1299 27.0008 10.1299 27.0008C10.1299 27.0008 16.2819 40.1353 26.1097 36.5364C34.9224 33.3066 37.3832 22.2176 37.3832 22.2176C37.3832 22.2176 46.5805 19.5261 46.5805 10.8671Z" fill="#263238"/>
<path d="M30.4777 21.0023C30.5663 21.0007 30.6523 20.9717 30.7239 20.9194C30.7954 20.8671 30.8491 20.794 30.8776 20.7101C34.6918 9.60572 46.0115 10.2671 46.5037 10.2978C46.6138 10.2978 46.7194 10.2541 46.7973 10.1762C46.8752 10.0983 46.9189 9.99271 46.9189 9.88257C46.9189 9.77244 46.8752 9.66682 46.7973 9.58894C46.7194 9.51106 46.6138 9.46731 46.5037 9.46731C46.3806 9.46731 34.0766 8.71369 30.0317 20.4333C29.997 20.5394 30.0049 20.6548 30.0536 20.7552C30.1024 20.8557 30.1883 20.9332 30.2932 20.9716L30.4777 21.0023Z" fill="#EC714C"/>
<g opacity="0.5">
<path d="M30.4777 21.0023C30.5663 21.0007 30.6523 20.9717 30.7239 20.9194C30.7954 20.8671 30.8491 20.794 30.8776 20.7101C34.6918 9.60572 46.0115 10.2671 46.5037 10.2978C46.6138 10.2978 46.7194 10.2541 46.7973 10.1762C46.8752 10.0983 46.9189 9.99271 46.9189 9.88257C46.9189 9.77244 46.8752 9.66682 46.7973 9.58894C46.7194 9.51106 46.6138 9.46731 46.5037 9.46731C46.3806 9.46731 34.0766 8.71369 30.0317 20.4333C29.997 20.5394 30.0049 20.6548 30.0536 20.7552C30.1024 20.8557 30.1883 20.9332 30.2932 20.9716L30.4777 21.0023Z" fill="white"/>
</g>
<path d="M52.8094 65.7891C52.8863 65.9121 52.9479 66.0506 53.0094 66.1736C55.3318 76.632 41.136 73.9866 35.3685 64.9278C39.1982 59.8216 39.9825 50.932 39.0597 44.5186L50.6409 54.0695L52.8863 56.2227C52.3595 57.8074 52.0239 59.4493 51.8866 61.1136C51.7244 62.7291 52.0456 64.3564 52.8094 65.7891Z" fill="#FF8B7B"/>
<g opacity="0.2">
<path d="M51.8867 61.1136C52.0239 59.4493 52.3595 57.8074 52.8864 56.2228L50.6409 54.0696L44.6427 53.9312C44.6427 53.9312 47.4572 59.7294 51.8867 61.1136Z" fill="black"/>
</g>
<path d="M34.7072 32.5068C36.2452 44.1034 36.7989 47.0717 43.0124 52.6239C52.3788 60.9752 65.9286 58.4836 67.7742 46.641C69.4506 35.9827 66.5746 18.7878 55.0396 14.989C43.5046 11.1901 33.1231 20.8949 34.7072 32.5068Z" fill="#FF8B7B"/>
<path d="M56.5776 47.5637C57.427 47.5637 58.1156 46.6755 58.1156 45.5797C58.1156 44.484 57.427 43.5957 56.5776 43.5957C55.7281 43.5957 55.0396 44.484 55.0396 45.5797C55.0396 46.6755 55.7281 47.5637 56.5776 47.5637Z" fill="white"/>
<path d="M55.5624 29.0153C55.509 29.0723 55.4448 29.1179 55.3735 29.1496C55.3021 29.1813 55.2252 29.1984 55.1472 29.1999C54.4403 29.2616 53.7623 29.5089 53.1817 29.9167C52.601 30.3244 52.1384 30.8783 51.8404 31.5223C51.7833 31.6508 51.6775 31.7513 51.5463 31.8018C51.4151 31.8523 51.2691 31.8485 51.1407 31.7914C51.0122 31.7343 50.9116 31.6285 50.8611 31.4973C50.8107 31.366 50.8144 31.2201 50.8715 31.0916C51.2504 30.2556 51.8503 29.5388 52.6064 29.0185C53.3625 28.4981 54.2463 28.1939 55.1625 28.1387C55.3026 28.1427 55.4356 28.2012 55.5333 28.3017C55.6309 28.4022 55.6855 28.5368 55.6854 28.677C55.6845 28.8005 55.641 28.92 55.5624 29.0153Z" fill="#263238"/>
<path d="M66.2054 31.1995C66.1323 31.1752 66.0654 31.135 66.0095 31.0819C65.9537 31.0287 65.9103 30.9638 65.8825 30.8919C65.5509 30.2641 65.0588 29.7355 64.4563 29.3599C63.8538 28.9843 63.1624 28.7753 62.4527 28.7541C62.3127 28.7501 62.1796 28.6916 62.082 28.5911C61.9844 28.4906 61.9298 28.3559 61.9298 28.2158C61.9318 28.1471 61.9473 28.0795 61.9755 28.0168C62.0036 27.9541 62.0438 27.8976 62.0938 27.8505C62.1438 27.8033 62.2026 27.7665 62.2668 27.7421C62.331 27.7177 62.3994 27.7062 62.4681 27.7082C63.3855 27.7268 64.2803 27.9961 65.0556 28.4868C65.831 28.9775 66.4573 29.6709 66.8668 30.492C66.8942 30.5565 66.9084 30.6259 66.9085 30.696C66.9085 30.766 66.8946 30.8354 66.8673 30.9C66.84 30.9645 66.8001 31.023 66.7498 31.0718C66.6995 31.1206 66.6399 31.1588 66.5746 31.1841C66.4578 31.2355 66.3261 31.2409 66.2054 31.1995Z" fill="#263238"/>
<path d="M57.6696 14.1737C57.6696 14.1737 56.3315 28.2464 42.2896 26.8776C28.2476 25.5088 39.5519 14.266 45.7501 12.5896C49.7856 11.6934 54.0081 12.2546 57.6696 14.1737Z" fill="#263238"/>
<path d="M42.3203 16.3115C42.3203 16.3115 47.6572 30.861 43.3815 35.7365C39.1059 40.6119 31.662 33.5217 31.662 33.5217C31.662 33.5217 32.3541 17.5727 42.3203 16.3115Z" fill="#263238"/>
<path d="M53.3785 34.1062C53.4554 35.0444 54.0091 35.7827 54.6243 35.7365C55.2395 35.6904 55.7009 34.8906 55.624 33.9371C55.5471 32.9835 54.9934 32.2606 54.3782 32.3068C53.763 32.3529 53.3016 33.1527 53.3785 34.1062Z" fill="#263238"/>
<path d="M62.9449 33.6142C63.0218 34.5524 63.5755 35.2906 64.2061 35.2445C64.8367 35.1984 65.2673 34.3832 65.1904 33.445C65.1135 32.5068 64.5598 31.7532 63.9446 31.7994C63.3294 31.8455 62.868 32.6606 62.9449 33.6142Z" fill="#263238"/>
<path d="M63.6677 31.8764L65.8978 31.0459C65.8978 31.0459 64.8674 32.9223 63.6677 31.8764Z" fill="#263238"/>
<path d="M59.0537 34.0601C59.0537 34.0601 60.8839 36.444 62.8218 38.4895C62.9731 38.6429 63.0874 38.8288 63.156 39.0331C63.2245 39.2374 63.2455 39.4547 63.2173 39.6683C63.1891 39.882 63.1125 40.0863 62.9934 40.2659C62.8742 40.4454 62.7155 40.5953 62.5296 40.7042C61.625 41.2199 60.6654 41.6327 59.6689 41.9346L59.0537 34.0601Z" fill="#FF5652"/>
<path d="M54.1013 32.3994L56.3314 31.5688C56.3314 31.5688 55.301 33.4452 54.1013 32.3994Z" fill="#263238"/>
<path d="M31.1698 40.8887C31.6704 41.8283 32.3655 42.6504 33.2089 43.3001C34.0522 43.9499 35.0244 44.4124 36.0606 44.6568C38.706 45.1951 39.7826 42.2422 38.8444 39.4122C37.9831 36.8745 35.5838 33.5217 33.0308 34.2907C30.4777 35.0597 29.7856 38.4279 31.1698 40.8887Z" fill="#FF8B7B"/>
<path d="M36.5835 45.8258C36.2757 46.0498 35.9082 46.1773 35.5277 46.1922C35.1473 46.207 34.771 46.1086 34.4466 45.9094C34.1221 45.7101 33.8642 45.419 33.7054 45.073C33.5466 44.727 33.4941 44.3416 33.5546 43.9657C33.6151 43.5898 33.7858 43.2403 34.0451 42.9616C34.3045 42.6828 34.6407 42.4874 35.0113 42.4C35.3819 42.3126 35.7701 42.3372 36.1266 42.4706C36.4832 42.6041 36.7921 42.8405 37.0142 43.1497C37.3104 43.5622 37.4314 44.0752 37.3507 44.5766C37.2701 45.078 36.9942 45.5271 36.5835 45.8258Z" fill="white"/>
<path d="M20.7268 82.8917L20.25 88.6592C20.127 90.6125 19.9732 92.5811 19.8809 94.5344C19.6502 98.4409 19.5733 102.332 19.604 106.085C19.617 109.579 19.9153 113.067 20.4961 116.512C20.7143 117.648 21.0387 118.76 21.465 119.834C21.5727 120.127 21.6188 120.188 21.3881 120.034C21.3148 119.987 21.2377 119.946 21.1574 119.911C21.1574 119.911 21.2497 119.911 21.2805 120.019L21.7419 120.342C22.7404 120.881 23.8214 121.25 24.9409 121.434C26.4639 121.699 28.0095 121.812 29.5549 121.772C33.222 121.659 36.8715 121.217 40.4593 120.45C48.2276 118.747 55.8814 116.559 63.3755 113.898L67.3743 121.049C63.8923 123.657 60.2447 126.036 56.4545 128.17C52.6356 130.361 48.6741 132.293 44.5965 133.953C40.2898 135.733 35.8036 137.042 31.2159 137.86C28.6761 138.289 26.101 138.474 23.5259 138.413C20.4927 138.356 17.4935 137.763 14.6671 136.66C13.8783 136.351 13.108 135.997 12.3601 135.599C11.9448 135.368 11.6526 135.23 11.145 134.907C10.6404 134.578 10.1527 134.224 9.68393 133.846C8.10783 132.536 6.757 130.978 5.68514 129.232C4.13164 126.666 2.97043 123.882 2.24001 120.973C1.04162 116.319 0.35063 111.549 0.1791 106.746C-0.0597002 102.31 -0.0597002 97.8635 0.1791 93.427C0.31752 91.243 0.455935 89.0745 0.702015 86.9059C0.948095 84.7373 1.19418 82.6456 1.5633 80.2925L20.7268 82.8917Z" fill="#263238"/>
<path d="M95.4121 130.954C95.3004 132.388 94.8751 133.779 94.1663 135.03C93.8226 135.644 93.4098 136.217 92.9359 136.737C92.547 137.154 92.1308 137.544 91.6901 137.906C91.3276 138.198 90.9418 138.461 90.5366 138.69C90.1829 138.89 89.8291 139.09 89.46 139.259C88.9581 139.482 88.4447 139.677 87.922 139.844C87.5221 139.952 87.1222 140.028 86.707 140.105C85.6147 140.288 84.5074 140.365 83.4003 140.336C82.4929 140.336 81.7085 140.259 80.9856 140.182C78.3687 139.822 75.7753 139.309 73.2187 138.644C70.8195 138.044 68.4817 137.429 66.2054 136.722C61.5914 135.322 57.1928 133.846 52.8095 132.215L51.2715 131.631H51.1484C50.9264 131.568 50.7103 131.485 50.5025 131.385C50.0411 131.231 49.5797 131.062 49.1336 130.877C41.6436 128.063 34.292 125.033 27.0018 121.649L29.8164 113.236L56.6545 118.881C61.0993 119.758 65.5441 120.68 69.8966 121.419C71.4346 121.68 74.9413 122.957 76.4024 123.203C75.1566 120.204 71.7884 116.097 70.5426 113.067C67.0206 104.701 63.4832 96.2569 60.1765 87.7979L77.9096 80.2617C81.7546 88.7207 85.1998 97.2874 88.4296 106.023C90.0752 110.391 91.5056 114.79 93.0436 119.373C93.7664 121.757 94.4277 123.833 95.1198 127.063L95.3659 128.34V128.493V128.786V129.216C95.4267 129.793 95.4421 130.375 95.4121 130.954Z" fill="#263238"/>
<path opacity="0.2" d="M70.558 86.7983C73.8178 92.2436 76.7205 97.8948 79.2477 103.716C81.8777 110.53 76.1717 116.866 76.1717 116.866L77.3713 118.912C77.3713 118.912 83.4311 111.514 81.3855 104.424C79.8783 99.3484 70.558 86.7983 70.558 86.7983Z" fill="black"/>
</svg>
