<svg width="120" height="35" viewBox="0 0 120 35" fill="none" xmlns="http://www.w3.org/2000/svg">
<g id="Weather / Evening / Hot / 1 ">
<g clip-path="url(#clip0_177_699)">
<rect width="120" height="35" rx="17.5" fill="url(#paint0_linear_177_699)"/>
<path id="Path 52" fill-rule="evenodd" clip-rule="evenodd" d="M126.396 23.4218C126.396 23.4218 112.242 18.6667 101.552 18.6667C87.4103 18.6667 77.9555 25.1517 66.5167 25.1517C53.1851 25.1517 51.5075 23.2778 44.0318 23.2778C33.4658 23.2778 19.5205 26.7917 12.1661 25.5235C6.23119 24.5001 -0.913655 22.4329 -0.913655 22.4329V39.7902L126.396 40.8334V23.4218Z" fill="url(#paint1_linear_177_699)"/>
<path id="Path 51" fill-rule="evenodd" clip-rule="evenodd" d="M0 35.9919C0 35.9919 0.61661 23.1193 14.5951 21.1065C26.8168 19.9095 36.2394 29.2001 47.1679 29.2001C59.9047 29.2001 65.9072 23.8083 78.2733 23.8083C87.2925 23.8083 96.0996 28.496 108.382 26.871C135.662 23.2619 121.63 22.6426 121.63 22.6426V43.1036L0 44.3333V35.9919Z" fill="url(#paint2_linear_177_699)"/>
<g id="1" filter="url(#filter0_i_177_699)">
<path d="M104 11C104 14.866 100.866 18 97 18C93.134 18 90 14.866 90 11C90 7.13401 93.134 4 97 4C100.866 4 104 7.13401 104 11Z" fill="url(#paint3_linear_177_699)"/>
</g>
<g id="clouds" filter="url(#filter1_i_177_699)">
<path d="M94.6145 14.5679C94.6452 14.3968 94.6612 14.2209 94.6612 14.0414C94.6612 12.3617 93.2625 11 91.5372 11C90.2546 11 89.1525 11.7526 88.6714 12.8289C88.2816 12.5013 87.7758 12.3034 87.2231 12.3034C85.9908 12.3034 84.9917 13.2869 84.9917 14.5C84.9917 14.5676 84.9948 14.6344 85.0009 14.7004C84.4081 14.9831 84 15.5762 84 16.2621C84 17.2219 84.7992 18 85.7851 18H94.2149C95.2008 18 96 17.2219 96 16.2621C96 15.436 95.408 14.7445 94.6145 14.5679Z" fill="url(#paint4_linear_177_699)"/>
</g>
<g id="clouds_2" filter="url(#filter2_i_177_699)">
<path d="M115.615 13.0582C115.645 12.9116 115.661 12.7608 115.661 12.6069C115.661 11.1671 114.263 10 112.537 10C111.255 10 110.152 10.645 109.671 11.5676C109.282 11.2868 108.776 11.1172 108.223 11.1172C106.991 11.1172 105.992 11.9602 105.992 13C105.992 13.0579 105.995 13.1152 106.001 13.1718C105.408 13.414 105 13.9224 105 14.5103C105 15.3331 105.799 16 106.785 16H115.215C116.201 16 117 15.3331 117 14.5103C117 13.8023 116.408 13.2096 115.615 13.0582Z" fill="url(#paint5_linear_177_699)"/>
</g>
</g>
</g>
<defs>
<filter id="filter0_i_177_699" x="90" y="4" width="14" height="19" filterUnits="userSpaceOnUse" color-interpolation-filters="sRGB">
<feFlood flood-opacity="0" result="BackgroundImageFix"/>
<feBlend mode="normal" in="SourceGraphic" in2="BackgroundImageFix" result="shape"/>
<feColorMatrix in="SourceAlpha" type="matrix" values="0 0 0 0 0 0 0 0 0 0 0 0 0 0 0 0 0 0 127 0" result="hardAlpha"/>
<feOffset dy="5"/>
<feGaussianBlur stdDeviation="9"/>
<feComposite in2="hardAlpha" operator="arithmetic" k2="-1" k3="1"/>
<feColorMatrix type="matrix" values="0 0 0 0 1 0 0 0 0 1 0 0 0 0 1 0 0 0 0.81 0"/>
<feBlend mode="normal" in2="shape" result="effect1_innerShadow_177_699"/>
</filter>
<filter id="filter1_i_177_699" x="84" y="11" width="12" height="17" filterUnits="userSpaceOnUse" color-interpolation-filters="sRGB">
<feFlood flood-opacity="0" result="BackgroundImageFix"/>
<feBlend mode="normal" in="SourceGraphic" in2="BackgroundImageFix" result="shape"/>
<feColorMatrix in="SourceAlpha" type="matrix" values="0 0 0 0 0 0 0 0 0 0 0 0 0 0 0 0 0 0 127 0" result="hardAlpha"/>
<feOffset dy="11"/>
<feGaussianBlur stdDeviation="5"/>
<feComposite in2="hardAlpha" operator="arithmetic" k2="-1" k3="1"/>
<feColorMatrix type="matrix" values="0 0 0 0 1 0 0 0 0 1 0 0 0 0 1 0 0 0 1 0"/>
<feBlend mode="normal" in2="shape" result="effect1_innerShadow_177_699"/>
</filter>
<filter id="filter2_i_177_699" x="105" y="10" width="12" height="16" filterUnits="userSpaceOnUse" color-interpolation-filters="sRGB">
<feFlood flood-opacity="0" result="BackgroundImageFix"/>
<feBlend mode="normal" in="SourceGraphic" in2="BackgroundImageFix" result="shape"/>
<feColorMatrix in="SourceAlpha" type="matrix" values="0 0 0 0 0 0 0 0 0 0 0 0 0 0 0 0 0 0 127 0" result="hardAlpha"/>
<feOffset dy="11"/>
<feGaussianBlur stdDeviation="5"/>
<feComposite in2="hardAlpha" operator="arithmetic" k2="-1" k3="1"/>
<feColorMatrix type="matrix" values="0 0 0 0 1 0 0 0 0 1 0 0 0 0 1 0 0 0 1 0"/>
<feBlend mode="normal" in2="shape" result="effect1_innerShadow_177_699"/>
</filter>
<linearGradient id="paint0_linear_177_699" x1="-16.3427" y1="0" x2="-16.3427" y2="44.5332" gradientUnits="userSpaceOnUse">
<stop offset="0.0677083" stop-color="#A5F1FF"/>
<stop offset="0.4375" stop-color="#D0FFF9"/>
</linearGradient>
<linearGradient id="paint1_linear_177_699" x1="126.396" y1="18.6667" x2="126.396" y2="40.8334" gradientUnits="userSpaceOnUse">
<stop stop-color="#FFB022"/>
<stop offset="1" stop-color="#FFD6BE"/>
</linearGradient>
<linearGradient id="paint2_linear_177_699" x1="0" y1="21" x2="0" y2="44.3333" gradientUnits="userSpaceOnUse">
<stop stop-color="#FED54C"/>
<stop offset="1" stop-color="#FEDD3A"/>
</linearGradient>
<linearGradient id="paint3_linear_177_699" x1="95.9367" y1="14.8101" x2="101.696" y2="4.70886" gradientUnits="userSpaceOnUse">
<stop offset="0.614583" stop-color="#FF9900"/>
<stop offset="1" stop-color="#FFEE94"/>
</linearGradient>
<linearGradient id="paint4_linear_177_699" x1="84.7633" y1="17.375" x2="96.7164" y2="8.27835" gradientUnits="userSpaceOnUse">
<stop stop-color="white"/>
<stop offset="1" stop-color="white" stop-opacity="0.58"/>
</linearGradient>
<linearGradient id="paint5_linear_177_699" x1="105.763" y1="15.4643" x2="116.319" y2="6.09268" gradientUnits="userSpaceOnUse">
<stop stop-color="white"/>
<stop offset="1" stop-color="white" stop-opacity="0.58"/>
</linearGradient>
<clipPath id="clip0_177_699">
<rect width="120" height="35" rx="17.5" fill="white"/>
</clipPath>
</defs>
</svg>
