<svg width="481" height="481" viewBox="0 0 481 481" fill="none" xmlns="http://www.w3.org/2000/svg">
<path d="M107.021 48.2393C104.491 43.5958 104.44 43.5177 108.952 40.532C137.228 21.8214 168.201 10.0748 201.484 4.17908C330.233 -18.6273 456.995 73.1309 476.325 203.183C492.774 313.857 434.274 419.521 332.915 462.107C326.499 464.803 320.091 467.767 308.557 468.473C343.454 429.576 370.495 389.39 387.072 343.085C403.865 296.177 410.846 248.2 398.918 195.576C385.432 252.429 348.799 293.765 322.564 340.796C308.889 365.311 296.517 390.373 292.654 419.659C285.333 415.835 286.146 409.375 285.047 404.223C272.001 343.06 280.879 284.309 304.928 227.353C327.545 173.787 318.255 125.62 279.907 83.0657C256.322 56.8934 224.843 45.3038 190.98 41.7147C163.185 38.7688 135.126 40.137 107.021 48.2393Z" fill="#EC714C"/>
<path d="M85.9618 216.957C85.987 224.407 85.9119 230.705 86.1322 236.992C86.2577 240.574 87.6164 244.103 91.7134 244.03C95.9328 243.954 96.6847 240.158 96.9335 236.682C98.1609 219.531 100.717 202.582 104.483 185.815C107.527 172.262 112.404 159.367 117.829 146.602C121.29 138.459 126.487 135.985 134.622 138.719C137.236 141.986 135.624 145.098 134.29 148.124C119.276 182.183 113.847 217.952 116.204 254.907C116.947 266.549 118.725 278.268 121.481 289.596C124.264 301.036 121.936 310.581 113.938 318.422C98.4448 333.61 98.0255 349.551 107.44 368.582C139.456 433.297 191.388 466.352 262.597 470.183C273.206 470.754 283.967 468.625 296.843 471.854C284.631 478.13 273.427 478.449 262.517 479.082C169.245 484.495 103.29 442.273 60.389 360.805C54.7409 350.08 48.1198 340.584 37.8831 334.475C18.2839 322.779 9.41017 304.95 5.75316 283.17C-2.08808 236.47 3.27562 191.364 20.6825 147.546C23.5582 140.307 27.3997 134.683 37.2675 140.177C31.9457 162.443 24.9079 184.349 21.9518 207.195C20.7023 216.854 20.7836 226.426 20.9698 236.05C21.0448 239.932 22.0682 244.165 27.0389 243.907C31.2546 243.689 31.6422 239.677 32.0676 236.311C34.9017 213.886 36.6601 191.251 44.3087 169.736C47.2515 161.458 50.4328 153.257 53.7829 145.136C56.3886 138.82 60.8169 135.988 67.7774 139.13C70.5124 143.803 67.8933 148.01 66.682 152.311C59.6357 177.326 52.7107 202.362 53.3822 228.735C53.4356 230.833 53.3896 232.935 53.4902 235.029C53.6988 239.373 54.2005 244.255 59.6497 244.275C64.8734 244.293 64.2535 239.265 64.6317 235.649C66.6796 216.068 68.3412 196.406 74.3915 177.531C77.7135 167.168 81.3291 156.882 85.2799 146.746C87.7536 140.399 91.8875 135.872 101.707 139.567C96.6893 164.778 87.66 189.625 85.9618 216.957Z" fill="#EC714C"/>
<path d="M136.701 208.227C141.035 158.71 165.549 121.079 198.847 85.8643C213.469 106.423 215.36 127.706 214.685 149.626C213.697 181.73 203.289 212.14 197.769 243.432C189.67 289.345 193.229 332.76 220.389 372.229C221.471 373.801 223.161 375.52 221.101 378.638C208.98 372.677 200.613 362.253 191.951 352.571C161.121 318.109 139.562 279.151 135.702 231.842C135.08 224.218 135.002 216.796 136.701 208.227Z" fill="#EC714C"/>
<path d="M221.684 218.207C232.293 192.403 246.693 170.305 265.49 149.629C276.672 161.252 277.953 174.602 278.697 187.717C280.329 216.452 273.163 244.114 267.424 271.929C261.503 300.628 256.396 329.37 258.548 358.984C259.499 372.067 264.578 383.796 269.508 396.643C223.263 379.381 198.032 283.676 221.684 218.207Z" fill="#EC714C"/>
</svg>
