<svg width="140" height="80" viewBox="0 0 140 80" fill="none" xmlns="http://www.w3.org/2000/svg">
<path d="M106.37 2H105.84C100.731 2 96.59 6.14137 96.59 11.25V67.94C96.59 73.0486 100.731 77.19 105.84 77.19H106.37C111.479 77.19 115.62 73.0486 115.62 67.94V11.25C115.62 6.14137 111.479 2 106.37 2Z" stroke="#FB8B15" stroke-width="4" stroke-linecap="round" stroke-linejoin="round"/>
<path d="M134.66 23.59C134.66 18.3323 130.4 14.07 125.145 14.07C119.89 14.07 115.63 18.3323 115.63 23.59V55.6C115.63 60.8578 119.89 65.12 125.145 65.12C130.4 65.12 134.66 60.8578 134.66 55.6V23.59Z" stroke="#FB8B15" stroke-width="4" stroke-linecap="round" stroke-linejoin="round"/>
<path d="M34.15 2H33.62C28.5114 2 24.37 6.14137 24.37 11.25V67.94C24.37 73.0486 28.5114 77.19 33.62 77.19H34.15C39.2586 77.19 43.4 73.0486 43.4 67.94V11.25C43.4 6.14137 39.2586 2 34.15 2Z" stroke="#FB8B15" stroke-width="4" stroke-linecap="round" stroke-linejoin="round"/>
<path d="M24.37 23.59C24.37 18.3323 20.11 14.07 14.855 14.07C9.60004 14.07 5.34003 18.3323 5.34003 23.59V55.6C5.34003 60.8578 9.60004 65.12 14.855 65.12C20.11 65.12 24.37 60.8578 24.37 55.6V23.59Z" stroke="#FB8B15" stroke-width="4" stroke-linecap="round" stroke-linejoin="round"/>
<path d="M43.41 43.24H96.59" stroke="#FB8B15" stroke-width="4" stroke-linecap="round" stroke-linejoin="round"/>
<path d="M43.41 35.95H96.59" stroke="#FB8B15" stroke-width="4" stroke-linecap="round" stroke-linejoin="round"/>
<path d="M138 34.24V43.24" stroke="#FB8B15" stroke-width="4" stroke-linecap="round" stroke-linejoin="round"/>
<path d="M2 34.24V43.24" stroke="#FB8B15" stroke-width="4" stroke-linecap="round" stroke-linejoin="round"/>
</svg>
