<svg width="28" height="26" viewBox="0 0 28 26" fill="none" xmlns="http://www.w3.org/2000/svg">
<mask id="path-1-inside-1_145_523" fill="white">
<path fill-rule="evenodd" clip-rule="evenodd" d="M11.7384 11.5781C11.1119 10.9554 10.9407 10.1678 11.0169 9.46408C11.1009 8.68782 11.4926 7.94324 12.0025 7.55898C12.6841 7.04578 13.3999 6.83504 14.0211 6.73188C14.3236 6.68496 14.6282 6.65018 14.9341 6.62762C15.0988 6.61362 15.2655 6.59962 15.4257 6.56351C15.7632 6.48725 16.0962 6.36346 16.3706 6.16673C16.4961 6.07647 16.6233 5.9851 16.7925 6.00204C16.8533 6.00816 16.9118 6.02657 16.9636 6.05591C17.0155 6.08524 17.0594 6.12476 17.0921 6.17152C18.3964 8.0383 18.1996 10.02 17.11 11.2682C16.5658 11.8912 15.8015 12.326 14.9101 12.4545C14.1323 12.5662 13.2825 12.4413 12.4261 12.036C12.3508 12.2474 12.2949 12.464 12.2589 12.6837C12.2436 12.7804 12.1864 12.8677 12.1 12.9263C12.0135 12.985 11.9047 13.0101 11.7977 12.9963C11.6907 12.9825 11.5941 12.9308 11.5293 12.8526C11.4644 12.7744 11.4365 12.6762 11.4518 12.5794C11.5024 12.2607 11.5986 11.9214 11.7384 11.5781ZM14.1678 7.45656C14.4548 7.40904 14.7242 7.38619 14.9859 7.36298C15.1995 7.34456 15.4147 7.3254 15.6234 7.27825C15.9749 7.20056 16.3116 7.07562 16.6221 6.90762C17.5099 8.4244 17.262 9.90434 16.47 10.8121C16.0428 11.3014 15.4555 11.63 14.7825 11.7265C14.178 11.8135 13.4781 11.7177 12.7322 11.3485C13.1854 10.5133 13.9265 9.71276 14.8913 9.27692C14.9881 9.23324 15.0617 9.15661 15.0959 9.06389C15.1302 8.97117 15.1223 8.86995 15.0739 8.7825C15.0256 8.69505 14.9408 8.62853 14.8382 8.59758C14.7357 8.56662 14.6237 8.57377 14.5269 8.61745C13.4638 9.09787 12.6494 9.92865 12.1199 10.8147C11.8586 10.4279 11.7804 9.97802 11.8285 9.53555C11.8974 8.89892 12.2198 8.35477 12.5243 8.12487C13.0656 7.71703 13.6363 7.54498 14.1682 7.45656H14.1678Z"/>
</mask>
<path d="M11.7384 11.5781L13.5907 12.3323L14.0931 11.0985L13.1482 10.1595L11.7384 11.5781ZM11.0169 9.46408L13.0053 9.67946L13.0053 9.67916L11.0169 9.46408ZM12.0025 7.55898L10.7995 5.9613L10.7989 5.96171L12.0025 7.55898ZM14.0211 6.73188L13.7145 4.75551L13.704 4.75715L13.6934 4.7589L14.0211 6.73188ZM14.9341 6.62762L15.0812 8.6222L15.0924 8.62138L15.1035 8.62043L14.9341 6.62762ZM15.4257 6.56351L15.8654 8.51457L15.8665 8.51433L15.4257 6.56351ZM16.3706 6.16673L17.5361 7.79199L17.5381 7.7906L16.3706 6.16673ZM16.7925 6.00204L16.9925 4.01208L16.9918 4.01201L16.7925 6.00204ZM17.0921 6.17152L15.4525 7.31685L15.4526 7.31705L17.0921 6.17152ZM17.11 11.2682L18.6163 12.5839L18.6167 12.5834L17.11 11.2682ZM14.9101 12.4545L15.1942 14.4342L15.1956 14.434L14.9101 12.4545ZM12.4261 12.036L13.2815 10.2282L11.2831 9.28254L10.5418 11.3654L12.4261 12.036ZM12.2589 12.6837L10.2852 12.3603L10.2835 12.3713L12.2589 12.6837ZM11.4518 12.5794L9.47654 12.2661L9.47639 12.267L11.4518 12.5794ZM14.1678 7.45656L13.841 5.48344L14.1678 9.45656V7.45656ZM14.9859 7.36298L14.814 5.37037L14.8092 5.3708L14.9859 7.36298ZM15.6234 7.27825L15.1918 5.32535L15.1826 5.32743L15.6234 7.27825ZM16.6221 6.90762L18.3481 5.89733L17.3712 4.22827L15.6703 5.1486L16.6221 6.90762ZM16.47 10.8121L17.9766 12.1275L17.9771 12.127L16.47 10.8121ZM14.7825 11.7265L14.4985 9.7468L14.4978 9.74691L14.7825 11.7265ZM12.7322 11.3485L10.9744 10.3946L9.98374 12.2199L11.8451 13.141L12.7322 11.3485ZM14.8913 9.27692L14.0685 7.45404L14.068 7.45426L14.8913 9.27692ZM14.5269 8.61745L13.704 6.79457L13.7033 6.79492L14.5269 8.61745ZM12.1199 10.8147L10.4626 11.9341L12.2232 14.5408L13.8367 11.8407L12.1199 10.8147ZM11.8285 9.53555L13.8168 9.75169L13.8169 9.75071L11.8285 9.53555ZM12.5243 8.12487L11.3208 6.5275L11.3192 6.52872L12.5243 8.12487ZM14.1682 7.45656L14.4962 9.42949L14.1682 5.45656V7.45656ZM13.1482 10.1595C13.0777 10.0894 13.0449 10.0258 13.0257 9.96338C13.0039 9.89235 12.9926 9.79627 13.0053 9.67946L9.02855 9.24869C8.90078 10.4282 9.18698 11.8621 10.3286 12.9967L13.1482 10.1595ZM13.0053 9.67916C13.0197 9.54579 13.0633 9.40474 13.1246 9.28698C13.1898 9.16151 13.2374 9.13273 13.2062 9.15625L10.7989 5.96171C9.76548 6.74046 9.15985 8.03485 9.02852 9.24899L13.0053 9.67916ZM13.2056 9.15667C13.5452 8.90096 13.9211 8.77587 14.3487 8.70486L13.6934 4.7589C12.8786 4.8942 11.8229 5.19059 10.7995 5.9613L13.2056 9.15667ZM14.3276 8.70825C14.5771 8.66955 14.8286 8.64083 15.0812 8.6222L14.7871 4.63303C14.4279 4.65952 14.07 4.70037 13.7145 4.75551L14.3276 8.70825ZM15.1035 8.62043C15.2416 8.6087 15.5481 8.58611 15.8654 8.51457L14.986 4.61246C14.9947 4.61048 14.9857 4.61307 14.946 4.61779C14.9026 4.62293 14.8537 4.62725 14.7647 4.63481L15.1035 8.62043ZM15.8665 8.51433C16.363 8.40215 16.9731 8.19576 17.5361 7.79198L15.205 4.54147C15.2167 4.53311 15.2079 4.54155 15.1673 4.55809C15.1268 4.57458 15.0668 4.5942 14.9849 4.6127L15.8665 8.51433ZM17.5381 7.7906C17.6294 7.72494 17.5411 7.79586 17.4104 7.85677C17.2342 7.93897 16.9459 8.02743 16.5931 7.99208L16.9918 4.01201C15.9589 3.90852 15.2292 4.5241 15.2031 4.54286L17.5381 7.7906ZM16.5924 7.99201C16.3845 7.9711 16.1748 7.90748 15.9789 7.7967L17.9483 4.31511C17.6488 4.14566 17.3221 4.04521 16.9925 4.01208L16.5924 7.99201ZM15.9789 7.7967C15.7827 7.68569 15.5986 7.52598 15.4525 7.31685L18.7316 5.02619C18.5202 4.72353 18.2483 4.48479 17.9483 4.31511L15.9789 7.7967ZM15.4526 7.31705C16.2871 8.51133 16.026 9.46876 15.6033 9.953L18.6167 12.5834C20.3731 10.5713 20.5058 7.56526 18.7315 5.02599L15.4526 7.31705ZM15.6037 9.95252C15.3695 10.2206 15.0361 10.4157 14.6246 10.475L15.1956 14.434C16.567 14.2362 17.7621 13.5618 18.6163 12.5839L15.6037 9.95252ZM14.6259 10.4748C14.2688 10.5261 13.8136 10.48 13.2815 10.2282L11.5706 13.8438C12.7513 14.4026 13.9959 14.6062 15.1942 14.4342L14.6259 10.4748ZM10.5418 11.3654C10.4268 11.6887 10.3408 12.0215 10.2852 12.3603L14.2326 13.0071C14.2491 12.9065 14.2749 12.8061 14.3103 12.7066L10.5418 11.3654ZM10.2835 12.3713C10.3609 11.8819 10.6407 11.4993 10.9778 11.2708L13.2221 14.5819C13.7322 14.2361 14.1264 13.679 14.2344 12.9961L10.2835 12.3713ZM10.9778 11.2708C11.3097 11.0459 11.6943 10.9663 12.0539 11.0128L11.5415 14.9798C12.1152 15.0539 12.7172 14.924 13.2221 14.5819L10.9778 11.2708ZM12.0539 11.0128C12.4142 11.0593 12.7889 11.2387 13.0685 11.5756L9.99005 14.1296C10.3993 14.6229 10.9672 14.9056 11.5415 14.9798L12.0539 11.0128ZM13.0685 11.5756C13.3551 11.9211 13.5055 12.397 13.4273 12.8918L9.47639 12.267C9.36755 12.9553 9.57366 13.6278 9.99005 14.1296L13.0685 11.5756ZM13.4272 12.8927C13.4512 12.741 13.5023 12.5495 13.5907 12.3323L9.88607 10.8238C9.69487 11.2934 9.55356 11.7805 9.47654 12.2661L13.4272 12.8927ZM14.4946 9.42968C14.6935 9.39675 14.8854 9.37975 15.1626 9.35516L14.8092 5.3708C14.563 5.39264 14.2161 5.42133 13.841 5.48344L14.4946 9.42968ZM15.1577 9.35559C15.3531 9.33873 15.7019 9.31094 16.0642 9.22907L15.1826 5.32743C15.1276 5.33987 15.0458 5.35039 14.814 5.37038L15.1577 9.35559ZM16.055 9.23112C16.5845 9.11411 17.0966 8.92487 17.5738 8.66663L15.6703 5.1486C15.5266 5.22637 15.3654 5.28701 15.1918 5.32537L16.055 9.23112ZM14.896 7.91791C15.383 8.74994 15.1479 9.28532 14.963 9.49728L17.9771 12.127C19.3762 10.5234 19.6367 8.09885 18.3481 5.89733L14.896 7.91791ZM14.9635 9.49672C14.8468 9.63037 14.691 9.71919 14.4985 9.7468L15.0664 13.7063C16.2199 13.5408 17.2389 12.9724 17.9766 12.1275L14.9635 9.49672ZM14.4978 9.74691C14.327 9.77147 14.0338 9.76117 13.6193 9.55603L11.8451 13.141C12.9224 13.6742 14.029 13.8555 15.0672 13.7062L14.4978 9.74691ZM14.49 12.3025C14.7794 11.7693 15.2251 11.3208 15.7147 11.0996L14.068 7.45426C12.6279 8.10477 11.5915 9.25738 10.9744 10.3946L14.49 12.3025ZM15.7142 11.0998C16.2591 10.8538 16.7375 10.3918 16.972 9.75684L13.2198 8.37095C13.3858 7.9214 13.717 7.61268 14.0685 7.45404L15.7142 11.0998ZM16.972 9.75684C17.2102 9.11199 17.1505 8.40516 16.8245 7.8152L13.3234 9.74981C13.0941 9.33475 13.0501 8.83036 13.2198 8.37095L16.972 9.75684ZM16.8245 7.8152C16.5043 7.23581 15.9782 6.85248 15.416 6.68284L14.2605 10.5123C13.9035 10.4046 13.5469 10.1543 13.3234 9.74981L16.8245 7.8152ZM15.416 6.68284C14.8555 6.51374 14.2458 6.55003 13.704 6.79457L15.3498 10.4403C15.0016 10.5975 14.6158 10.6195 14.2605 10.5123L15.416 6.68284ZM13.7033 6.79492C12.2043 7.47233 11.103 8.61762 10.4031 9.78875L13.8367 11.8407C14.1959 11.2397 14.7234 10.7234 15.3505 10.44L13.7033 6.79492ZM13.7773 9.69526C13.7871 9.70976 13.7956 9.7256 13.8022 9.74144C13.8088 9.75707 13.8123 9.76972 13.814 9.77778C13.8173 9.79327 13.813 9.7861 13.8168 9.75169L9.8402 9.31941C9.7513 10.1372 9.88752 11.0828 10.4626 11.9341L13.7773 9.69526ZM13.8169 9.75071C13.8195 9.7265 13.825 9.69927 13.8338 9.67098C13.8426 9.64241 13.853 9.61851 13.8618 9.60162C13.8711 9.58376 13.8739 9.58285 13.8627 9.59692C13.8567 9.60452 13.8444 9.61916 13.8246 9.63899C13.8052 9.65846 13.7739 9.68739 13.7294 9.72103L11.3192 6.52872C10.4948 7.15111 9.95672 8.24253 9.84009 9.32039L13.8169 9.75071ZM13.7278 9.72225C13.9266 9.57243 14.1569 9.48588 14.4962 9.42949L13.8403 5.48363C13.1156 5.60409 12.2046 5.86163 11.3208 6.5275L13.7278 9.72225ZM14.1682 5.45656H14.1678V9.45656H14.1682V5.45656Z" fill="black" mask="url(#path-1-inside-1_145_523)"/>
<path d="M26.0259 9.5C25.7956 9.97801 25.6715 10.5002 25.6622 11.0308C25.6528 11.5613 25.7585 12.0875 25.9719 12.5733L16.7545 23.7093C16.5465 23.9607 16.2682 24.1442 15.9553 24.2366C15.6424 24.329 15.3091 24.326 14.9979 24.228L3.68521 20.6667C2.98103 20.4775 2.33365 20.1193 1.79921 19.6233C1.44733 19.1777 1.20628 18.6549 1.09587 18.098C0.974315 17.3719 0.977245 16.6304 1.10454 15.9053C1.52854 13.8493 3.04454 14.454 3.04454 14.454" stroke="black" stroke-width="1.8" stroke-linecap="round" stroke-linejoin="round"/>
<path d="M3.04449 14.4546L14.5812 18.356C14.8898 18.4602 15.2226 18.4697 15.5367 18.383C15.8507 18.2964 16.1316 18.1177 16.3432 17.87L26.8472 5.57396C26.9214 5.48703 26.972 5.38236 26.9938 5.27013C27.0156 5.1579 27.0081 5.04192 26.9719 4.93348C26.9356 4.82503 26.8719 4.72781 26.787 4.65126C26.7021 4.57471 26.5988 4.52144 26.4872 4.49663L14.0165 1.74129C13.6911 1.66936 13.3524 1.68732 13.0364 1.79325C12.7205 1.89919 12.4394 2.0891 12.2232 2.34263L1.67383 14.7206" stroke="black" stroke-width="1.8" stroke-linecap="round" stroke-linejoin="round"/>
</svg>
