<svg width="24" height="23" viewBox="0 0 24 23" fill="none" xmlns="http://www.w3.org/2000/svg">
<path d="M12.2634 20.7647C11.9197 21.0751 11.3966 21.0741 11.0542 20.7624L10.0627 19.8598C4.39771 14.7228 0.657715 11.3348 0.657715 7.17683C0.657715 3.78883 3.31972 1.12683 6.70772 1.12683C8.62172 1.12683 10.4587 2.01783 11.6577 3.42583C12.8567 2.01783 14.6937 1.12683 16.6077 1.12683C19.9957 1.12683 22.6577 3.78883 22.6577 7.17683C22.6577 11.3348 18.9177 14.7228 13.2527 19.8708L12.2634 20.7647Z" fill="#D8D8D8"/>
<mask id="mask0_0_439" style="mask-type:luminance" maskUnits="userSpaceOnUse" x="0" y="1" width="23" height="20">
<path d="M12.2634 20.7647C11.9197 21.0751 11.3966 21.0741 11.0542 20.7624L10.0627 19.8598C4.39771 14.7228 0.657715 11.3348 0.657715 7.17683C0.657715 3.78883 3.31972 1.12683 6.70772 1.12683C8.62172 1.12683 10.4587 2.01783 11.6577 3.42583C12.8567 2.01783 14.6937 1.12683 16.6077 1.12683C19.9957 1.12683 22.6577 3.78883 22.6577 7.17683C22.6577 11.3348 18.9177 14.7228 13.2527 19.8708L12.2634 20.7647Z" fill="white"/>
</mask>
<g mask="url(#mask0_0_439)">
<path d="M6.84912 3.05981C6.58845 3.05981 6.33424 3.08348 6.08847 3.12881C4.68265 3.38813 3.55303 4.35659 3.07167 5.6621C2.90878 6.10388 2.82013 6.58425 2.82013 7.08881" stroke="white" stroke-linecap="round" stroke-linejoin="round"/>
</g>
</svg>
