<svg width="25" height="27" viewBox="0 0 25 27" fill="none" xmlns="http://www.w3.org/2000/svg">
<mask id="path-1-outside-1_144_502" maskUnits="userSpaceOnUse" x="0" y="0" width="25" height="27" fill="black">
<rect fill="white" width="25" height="27"/>
<path fill-rule="evenodd" clip-rule="evenodd" d="M20.6395 18.3713C20.4624 18.2456 20.4252 18.0032 20.5472 17.8239C21.7631 16.0292 22.4204 13.8251 22.2655 11.4602C21.9275 6.30712 17.6423 2.17255 12.4807 2.00545C5.64125 1.78424 0.257931 8.33567 2.5268 15.4632C3.35276 18.0578 6.22266 20.9266 8.81618 21.7574C10.5355 22.3075 12.2208 22.4104 13.7863 22.1558C13.7868 22.1558 13.7873 22.1568 13.7878 22.1568C13.9603 22.1276 14.1374 22.1176 14.3162 22.1043C14.5374 22.0879 14.7597 22.0635 14.9867 22.0635C16.3501 22.0635 17.6015 22.5329 18.5961 23.3149C18.6715 23.3759 18.7468 23.4347 18.8216 23.5021C18.8433 23.5212 18.8645 23.5408 18.8858 23.5599C19.2539 23.9016 19.621 24.3732 19.9531 24.8808C19.9531 24.8808 20.0597 25.0856 20.274 24.9583C20.3128 24.936 20.3515 24.9143 20.3897 24.8914C20.8857 24.5615 21.8697 23.7525 22.1901 22.395C22.1997 22.3494 22.2113 22.3048 22.2198 22.2587C22.2347 22.1828 22.2464 22.1048 22.2564 22.0258C22.2755 21.8714 22.2909 21.7155 22.2909 21.5558C22.2909 20.2397 21.6379 19.0774 20.6395 18.3713"/>
</mask>
<path d="M20.5472 17.8239L22.0354 18.8365L22.0374 18.8335L20.5472 17.8239ZM22.2655 11.4602L24.0616 11.3426L24.0616 11.3424L22.2655 11.4602ZM12.4807 2.00545L12.539 0.206389L12.5389 0.206387L12.4807 2.00545ZM2.5268 15.4632L0.811602 16.0092L0.81161 16.0092L2.5268 15.4632ZM8.81618 21.7574L8.2671 23.4716L8.26764 23.4717L8.81618 21.7574ZM13.7863 22.1558V20.3558H13.6408L13.4973 20.3791L13.7863 22.1558ZM13.7878 22.1568V23.9568H13.9391L14.0882 23.9316L13.7878 22.1568ZM14.3162 22.1043L14.4494 23.8994L14.4496 23.8993L14.3162 22.1043ZM18.5961 23.3149L19.729 21.9161L19.7188 21.9078L19.7086 21.8998L18.5961 23.3149ZM18.8216 23.5021L17.6169 24.8396L17.6254 24.8472L17.6339 24.8547L18.8216 23.5021ZM18.8858 23.5599L20.1101 22.2405L20.1001 22.2312L20.0899 22.222L18.8858 23.5599ZM19.9531 24.8808L21.5496 24.0495L21.5083 23.9703L21.4594 23.8955L19.9531 24.8808ZM20.274 24.9583L19.3764 23.3981L19.3655 23.4044L19.3547 23.4108L20.274 24.9583ZM20.3897 24.8914L21.3126 26.4368L21.3502 26.4144L21.3867 26.3901L20.3897 24.8914ZM22.1901 22.395L23.942 22.8085L23.9473 22.7862L23.952 22.7638L22.1901 22.395ZM22.2198 22.2587L20.4534 21.9128L20.4514 21.9229L20.4495 21.9331L22.2198 22.2587ZM22.2564 22.0258L24.042 22.2535L24.0428 22.2468L22.2564 22.0258ZM21.6812 16.9033C22.3461 17.3751 22.435 18.2492 22.0354 18.8365L19.0591 16.8112C18.4154 17.7571 18.5786 19.116 19.5979 19.8393L21.6812 16.9033ZM22.0374 18.8335C23.4699 16.7191 24.2436 14.1204 24.0616 11.3426L20.4693 11.5779C20.5972 13.5298 20.0562 15.3394 19.057 16.8142L22.0374 18.8335ZM24.0616 11.3424C23.6629 5.26267 18.6234 0.403368 12.539 0.206389L12.4225 3.8045C16.6612 3.94173 20.1922 7.35156 20.4693 11.578L24.0616 11.3424ZM12.5389 0.206387C4.48437 -0.0541227 -1.84245 7.67163 0.811602 16.0092L4.24199 14.9172C2.35831 8.99972 6.79813 3.62259 12.4226 3.80451L12.5389 0.206387ZM0.81161 16.0092C1.33642 17.6578 2.45375 19.2619 3.7356 20.5443C5.0176 21.8268 6.62082 22.9443 8.2671 23.4716L9.36526 20.0432C8.41802 19.7397 7.28952 19.0074 6.2817 17.9992C5.27373 16.9908 4.54313 15.8632 4.24199 14.9172L0.81161 16.0092ZM8.26764 23.4717C10.255 24.1076 12.2273 24.233 14.0752 23.9324L13.4973 20.3791C12.2144 20.5878 10.8159 20.5073 9.36472 20.043L8.26764 23.4717ZM13.7863 23.9558C13.6353 23.9558 13.4974 23.9368 13.3758 23.9083C13.2552 23.8801 13.1511 23.8426 13.0653 23.805C13.0222 23.7862 12.9828 23.7669 12.9472 23.7482C12.9117 23.7295 12.8793 23.7109 12.8503 23.6932C12.8212 23.6755 12.7948 23.6583 12.7712 23.6422C12.7476 23.626 12.7262 23.6106 12.7071 23.5962C12.6693 23.5679 12.638 23.5421 12.614 23.5215C12.5899 23.5009 12.5703 23.4829 12.5562 23.4697C12.5421 23.4565 12.531 23.4456 12.5246 23.4394C12.5213 23.4361 12.5187 23.4335 12.5171 23.4319C12.5157 23.4305 12.5145 23.4293 12.5147 23.4295C12.5147 23.4295 12.5147 23.4295 12.5147 23.4295C12.5147 23.4295 12.5147 23.4295 12.5147 23.4296C12.5148 23.4296 12.5148 23.4296 12.5149 23.4297C12.515 23.4298 12.5151 23.43 12.5153 23.4302C12.5157 23.4306 12.5164 23.4312 12.5172 23.432C12.5188 23.4336 12.5215 23.4363 12.5248 23.4396C12.5313 23.4459 12.5424 23.4568 12.5566 23.4701C12.5708 23.4833 12.5905 23.5014 12.6146 23.5221C12.6386 23.5427 12.67 23.5686 12.7079 23.597C12.727 23.6113 12.7484 23.6268 12.7721 23.643C12.7958 23.6591 12.8222 23.6763 12.8513 23.6941C12.8804 23.7118 12.9128 23.7304 12.9483 23.7491C12.9839 23.7679 13.0234 23.7871 13.0665 23.806C13.1524 23.8435 13.2565 23.8811 13.3772 23.9094C13.4988 23.9379 13.6369 23.9568 13.7878 23.9568V20.3568C13.9388 20.3568 14.0767 20.3758 14.1983 20.4043C14.3189 20.4325 14.423 20.47 14.5088 20.5075C14.5519 20.5264 14.5913 20.5456 14.6268 20.5644C14.6624 20.5831 14.6948 20.6017 14.7238 20.6194C14.7529 20.6371 14.7793 20.6543 14.8029 20.6704C14.8265 20.6866 14.8479 20.702 14.867 20.7163C14.9048 20.7447 14.9361 20.7705 14.9601 20.791C14.9841 20.8117 15.0038 20.8297 15.0179 20.8429C15.032 20.8561 15.0431 20.8669 15.0494 20.8732C15.0527 20.8764 15.0554 20.8791 15.057 20.8806C15.0584 20.8821 15.0596 20.8833 15.0594 20.8831C15.0594 20.8831 15.0594 20.8831 15.0594 20.8831C15.0594 20.883 15.0594 20.883 15.0594 20.883C15.0593 20.883 15.0593 20.883 15.0592 20.8829C15.0591 20.8828 15.059 20.8826 15.0588 20.8824C15.0584 20.882 15.0577 20.8814 15.0569 20.8805C15.0553 20.8789 15.0526 20.8763 15.0492 20.873C15.0428 20.8667 15.0317 20.8558 15.0175 20.8425C15.0033 20.8292 14.9836 20.8112 14.9595 20.7905C14.9355 20.7698 14.9041 20.744 14.8662 20.7156C14.8471 20.7013 14.8257 20.6858 14.802 20.6696C14.7783 20.6535 14.7519 20.6362 14.7228 20.6185C14.6937 20.6008 14.6613 20.5822 14.6258 20.5635C14.5902 20.5447 14.5507 20.5254 14.5076 20.5066C14.4217 20.469 14.3176 20.4315 14.1969 20.4032C14.0753 20.3747 13.9372 20.3558 13.7863 20.3558V23.9558ZM14.0882 23.9316C14.1551 23.9203 14.2223 23.9162 14.4494 23.8994L14.183 20.3092C14.0525 20.3189 13.7654 20.335 13.4875 20.3821L14.0882 23.9316ZM14.4496 23.8993C14.7538 23.8767 14.8487 23.8635 14.9867 23.8635V20.2635C14.6706 20.2635 14.3211 20.299 14.1828 20.3093L14.4496 23.8993ZM14.9867 23.8635C15.9286 23.8635 16.7918 24.186 17.4837 24.7299L19.7086 21.8998C18.4111 20.8798 16.7715 20.2635 14.9867 20.2635V23.8635ZM17.4633 24.7137C17.5695 24.7997 17.588 24.8136 17.6169 24.8396L20.0262 22.1647C19.9055 22.0559 19.7734 21.9521 19.729 21.9161L17.4633 24.7137ZM17.6339 24.8547C17.6338 24.8546 17.6361 24.8566 17.6447 24.8644C17.6498 24.869 17.6526 24.8716 17.6599 24.8782C17.6658 24.8836 17.6734 24.8905 17.6816 24.8979L20.0899 22.222C20.0825 22.2153 20.0794 22.2125 20.063 22.1976C20.0503 22.1861 20.0311 22.1687 20.0092 22.1495L17.6339 24.8547ZM17.6614 24.8794C17.881 25.0831 18.1565 25.4224 18.4467 25.8662L21.4594 23.8955C21.0856 23.3239 20.6269 22.72 20.1101 22.2405L17.6614 24.8794ZM19.9531 24.8808C18.3566 25.7122 18.357 25.713 18.3575 25.7139C18.3576 25.7142 18.358 25.715 18.3583 25.7156C18.3589 25.7167 18.3595 25.7178 18.3601 25.719C18.3613 25.7213 18.3626 25.7236 18.3638 25.726C18.3663 25.7307 18.3689 25.7355 18.3716 25.7404C18.3769 25.7503 18.3827 25.7606 18.3888 25.7714C18.4009 25.7928 18.4148 25.8163 18.4304 25.8414C18.4613 25.8909 18.5011 25.9499 18.5507 26.0139C18.6444 26.1347 18.8031 26.3121 19.0416 26.4696C19.2912 26.6343 19.6426 26.785 20.0755 26.799C20.5119 26.813 20.894 26.6836 21.1934 26.5058L19.3547 23.4108C19.5469 23.2966 19.8353 23.1894 20.1914 23.2008C20.5441 23.2122 20.8286 23.3356 21.0248 23.465C21.2098 23.5872 21.3285 23.7214 21.3955 23.8077C21.4318 23.8546 21.4615 23.8986 21.4858 23.9374C21.498 23.9571 21.5094 23.9763 21.5199 23.9949C21.5252 24.0041 21.5303 24.0133 21.5352 24.0224C21.5377 24.027 21.5401 24.0315 21.5425 24.036C21.5437 24.0383 21.5449 24.0405 21.5461 24.0428C21.5467 24.0439 21.5473 24.045 21.5479 24.0461C21.5481 24.0467 21.5486 24.0475 21.5487 24.0478C21.5492 24.0487 21.5496 24.0495 19.9531 24.8808ZM21.1717 26.5185C21.1887 26.5087 21.2578 26.4696 21.3126 26.4368L19.4667 23.3461C19.4452 23.359 19.4368 23.3633 19.3764 23.3981L21.1717 26.5185ZM21.3867 26.3901C22.0417 25.9544 23.4685 24.8147 23.942 22.8085L20.4383 21.9815C20.271 22.6903 19.7297 23.1686 19.3927 23.3928L21.3867 26.3901ZM23.952 22.7638C23.9514 22.7663 23.9515 22.7659 23.9529 22.7596C23.9555 22.748 23.9553 22.749 23.9601 22.7284C23.9662 22.7015 23.9785 22.6474 23.9901 22.5842L20.4495 21.9331C20.4527 21.9161 20.4549 21.9074 20.4507 21.9257C20.4497 21.93 20.4488 21.934 20.4473 21.9406C20.4459 21.9465 20.4442 21.9541 20.4423 21.9623C20.4386 21.9786 20.4336 22.0009 20.4283 22.0263L23.952 22.7638ZM23.9863 22.6046C24.0114 22.4766 24.0289 22.3564 24.042 22.2535L20.4709 21.7981C20.4639 21.8532 20.458 21.8891 20.4534 21.9128L23.9863 22.6046ZM24.0428 22.2468C24.0649 22.0682 24.0909 21.8262 24.0909 21.5558H20.4909C20.4909 21.6047 20.4862 21.6747 20.4701 21.8048L24.0428 22.2468ZM24.0909 21.5558C24.0909 19.629 23.1323 17.9296 21.6789 16.9017L19.6002 19.8409C20.1435 20.2251 20.4909 20.8503 20.4909 21.5558H24.0909Z" fill="#D8D8D8" mask="url(#path-1-outside-1_144_502)"/>
<path d="M18.9562 10.5043C18.7766 11.5446 18.1352 12.2439 17.1134 12.4979C16.6753 12.6066 16.5525 12.8134 16.5203 13.2073C16.4635 13.9005 16.3543 14.6445 16.2753 15.4359C16.2648 15.5395 16.1923 15.6165 16.1028 15.6466C16.0535 15.6587 16.0319 15.627 16.0319 15.627C15.57 15.1577 14.1549 14.8151 12.4726 14.8151C10.8266 14.8151 9.43661 15.1431 8.94461 15.5968C8.94059 15.5994 8.93556 15.6034 8.92952 15.6084C8.89732 15.6376 8.86613 15.6336 8.84802 15.6285C8.77608 15.5928 8.71773 15.5279 8.70616 15.4409C8.67245 15.1969 8.63975 14.9645 8.63673 14.7316C8.63019 14.2375 8.5004 13.9714 7.92741 13.8592C6.76733 13.6334 6.02731 12.6398 6.00065 11.4742C5.97499 10.3513 6.71048 9.35526 7.78051 9.02022C8.1724 8.89747 8.3525 8.97494 8.41287 9.40758C8.45412 9.7054 8.61812 10.2648 8.73282 10.453L8.73383 10.4545C8.74087 10.4635 8.74841 10.4706 8.76049 10.4706C8.77759 10.4706 8.79168 10.457 8.79168 10.4399C8.79168 10.4374 8.79017 10.4288 8.79017 10.4288C8.19101 7.46926 9.05629 5.39208 12.1688 5.01528C14.092 4.83519 17.0486 6.2805 15.3235 7.56836C15.1726 7.68105 14.8044 7.86668 14.7163 7.91347C14.7068 7.9185 14.6987 7.92403 14.6912 7.92956C14.6801 7.93711 14.671 7.94516 14.664 7.95371C14.6585 7.95975 14.6544 7.96629 14.6504 7.97233C14.6494 7.97383 14.6484 7.97585 14.6479 7.97736C14.6353 7.99949 14.6323 8.01961 14.6318 8.03018C14.6343 8.09105 14.6841 8.13532 14.7455 8.14085C14.828 8.1484 15.0468 8.00553 15.1636 7.93963C16.0842 7.41845 17.0128 7.41191 17.8862 8.00301C18.7575 8.59362 19.1363 9.46141 18.9562 10.5043" stroke="#D8D8D8" stroke-width="1.5"/>
<path d="M12.5003 18.6345C10.6238 18.6345 9.10254 18.1238 9.10254 17.494C9.10254 16.8637 10.6238 16.3525 12.5003 16.3525C14.3767 16.3525 15.898 16.8637 15.898 17.494C15.898 18.1238 14.3767 18.6345 12.5003 18.6345" stroke="#D8D8D8"/>
</svg>
