<svg width="21" height="24" viewBox="0 0 21 24" fill="none" xmlns="http://www.w3.org/2000/svg">
<path fill-rule="evenodd" clip-rule="evenodd" d="M17.0152 9.44579C16.8259 10.5428 16.1495 11.2802 15.0721 11.5481C14.61 11.6627 14.4806 11.8807 14.4467 12.2961C14.3867 13.0271 14.2716 13.8116 14.1883 14.6461C14.1772 14.7554 14.1008 14.8365 14.0064 14.8684C13.9544 14.8811 13.9316 14.8477 13.9316 14.8477C13.4446 14.3527 11.9523 13.9915 10.1784 13.9915C8.44267 13.9915 6.97696 14.3374 6.45815 14.8158C6.4539 14.8185 6.4486 14.8227 6.44223 14.828C6.40828 14.8588 6.37539 14.8546 6.35629 14.8493C6.28043 14.8116 6.2189 14.7432 6.2067 14.6514C6.17115 14.3941 6.13667 14.149 6.13349 13.9034C6.12659 13.3825 5.98973 13.1019 5.38551 12.9836C4.16222 12.7454 3.38189 11.6977 3.35377 10.4686C3.32672 9.28452 4.10228 8.23417 5.23061 7.88087C5.64386 7.75143 5.83377 7.83313 5.89743 8.28934C5.94093 8.60338 6.11386 9.19328 6.23481 9.39168L6.23587 9.39327C6.2433 9.40282 6.25126 9.41025 6.26399 9.41025C6.28203 9.41025 6.29688 9.39592 6.29688 9.37789C6.29688 9.37523 6.29529 9.36622 6.29529 9.36622C5.66349 6.2454 6.57591 4.05504 9.858 3.65771C11.886 3.4678 15.0037 4.99187 13.1846 6.3499C13.0255 6.46873 12.6372 6.66448 12.5444 6.71381C12.5343 6.71912 12.5258 6.72495 12.5178 6.73079C12.5062 6.73874 12.4966 6.74723 12.4892 6.75625C12.4833 6.76262 12.4791 6.76951 12.4749 6.77588C12.4738 6.77747 12.4727 6.77959 12.4722 6.78118C12.4589 6.80452 12.4558 6.82574 12.4552 6.83688C12.4579 6.90107 12.5104 6.94775 12.5751 6.95359C12.6621 6.96155 12.8929 6.81089 13.0159 6.7414C13.9867 6.19182 14.966 6.18492 15.8869 6.80824C16.8057 7.43102 17.2052 8.3461 17.0152 9.44579ZM10.2076 17.0189C8.22889 17.0189 6.62472 16.4805 6.62472 15.8163C6.62472 15.1516 8.22889 14.6127 10.2076 14.6127C12.1863 14.6127 13.7905 15.1516 13.7905 15.8163C13.7905 16.4805 12.1863 17.0189 10.2076 17.0189ZM18.768 17.0768C18.5908 16.951 18.5536 16.7086 18.6756 16.5293C19.8915 14.7347 20.5488 12.5305 20.3939 10.1657C20.056 5.01256 15.7707 0.877992 10.6092 0.710891C3.76967 0.48968 -1.61365 7.04112 0.655216 14.1687C1.48117 16.7632 4.35108 19.6321 6.9446 20.4628C8.66389 21.0129 10.3492 21.1158 11.9147 20.8612C11.9152 20.8612 11.9157 20.8623 11.9163 20.8623C12.0887 20.8331 12.2658 20.823 12.4446 20.8097C12.6658 20.7933 12.8881 20.7689 13.1151 20.7689C14.4785 20.7689 15.7299 21.2384 16.7245 22.0203C16.7999 22.0813 16.8752 22.1402 16.95 22.2076C16.9717 22.2267 16.993 22.2463 17.0142 22.2654C17.3823 22.607 17.7494 23.0786 18.0815 23.5863C18.0815 23.5863 18.1881 23.791 18.4025 23.6637C18.4412 23.6415 18.4799 23.6197 18.5181 23.5969C19.0141 23.2669 19.9981 22.458 20.3185 21.1005C20.3281 21.0548 20.3398 21.0103 20.3483 20.9641C20.3631 20.8883 20.3748 20.8103 20.3849 20.7312C20.404 20.5769 20.4193 20.4209 20.4193 20.2612C20.4193 18.9451 19.7663 17.7828 18.768 17.0768Z" fill="#D8D8D8"/>
</svg>
