<svg width="23" height="24" viewBox="0 0 23 24" fill="none" xmlns="http://www.w3.org/2000/svg">
<path d="M8 16.75C8 16.3358 8.33579 16 8.75 16H14.565C14.9792 16 15.315 16.3358 15.315 16.75C15.315 17.1642 14.9792 17.5 14.565 17.5H8.75C8.33579 17.5 8 17.1642 8 16.75V16.75Z" fill="#D9D9D9"/>
<path fill-rule="evenodd" clip-rule="evenodd" d="M7.86512 2.40897C8.86545 1.69178 10.0821 1 11.308 1C12.5305 1 13.757 1.68633 14.7699 2.4018C15.4858 2.90759 16.1941 3.50449 16.787 4.00416C17.0399 4.21729 17.2719 4.41274 17.4744 4.57587C17.488 4.58681 17.5012 4.59822 17.514 4.61008C17.92 4.98662 18.2854 5.3107 18.6172 5.60318C18.6622 5.64284 18.7067 5.68205 18.7507 5.72083C19.0286 5.96553 19.2868 6.1929 19.5192 6.40748C20.0585 6.90537 20.5124 7.38157 20.8532 7.97646C21.5336 9.16434 21.672 10.6761 21.672 13.463C21.672 15.5504 21.5502 17.182 21.2226 18.4426C20.89 19.7227 20.3305 20.6745 19.4265 21.3234C18.5464 21.9551 17.4304 22.2324 16.1284 22.3666C14.8337 22.5 13.2494 22.5 11.3732 22.5H11.2988C9.42258 22.5 7.83831 22.5 6.54365 22.3666C5.24165 22.2324 4.12562 21.9551 3.24553 21.3234C2.34151 20.6745 1.78203 19.7227 1.44937 18.4426C1.12181 17.182 1 15.5504 1 13.463C1 10.676 1.13865 9.16424 1.8194 7.97634C2.1603 7.38148 2.6143 6.9053 3.15365 6.40743C3.38583 6.1931 3.64376 5.966 3.92131 5.72161C3.96565 5.68257 4.01048 5.64309 4.0558 5.60316C4.38761 5.31069 4.75299 4.98661 5.15901 4.61008C5.17184 4.59818 5.18508 4.58674 5.19871 4.57577C5.41083 4.40502 5.65839 4.19454 5.92993 3.96367C6.50391 3.47566 7.18504 2.89655 7.86512 2.40897V2.40897Z" stroke="#D9D9D9" stroke-width="1.8" stroke-linejoin="round"/>
</svg>
