<svg width="18" height="24" viewBox="0 0 18 24" fill="none" xmlns="http://www.w3.org/2000/svg">
<path d="M3.44998 6.136L4.34998 6.13883L4.34998 6.13622L3.44998 6.136ZM8.5538 11.2736L8.55075 12.1736H8.5538V11.2736ZM3.3688 15.4345L2.87495 14.6821L2.87495 14.6821L3.3688 15.4345ZM1.75274 21.0691L1.09566 21.6841L1.09567 21.6841L1.75274 21.0691ZM3.54319 22.146L3.24961 22.9968L3.24961 22.9968L3.54319 22.146ZM13.6565 22.1343L13.9538 22.9838L13.9538 22.9838L13.6565 22.1343ZM15.4416 21.0487L16.1015 21.6607L16.1016 21.6607L15.4416 21.0487ZM13.8104 15.4226L13.3194 16.1769L13.3194 16.1769L13.8104 15.4226ZM4.34998 6.13622C4.35054 3.79682 6.24771 1.9 8.58725 1.9V0.1C5.25375 0.1 2.55078 2.80246 2.54998 6.13578L4.34998 6.13622ZM8.55686 10.3736C6.22551 10.3657 4.34264 8.47006 4.34997 6.13883L2.54998 6.13317C2.53952 9.45812 5.22526 12.1623 8.55075 12.1736L8.55686 10.3736ZM8.5564 10.3736H8.5538V12.1736H8.5564V10.3736ZM8.58725 10.3736H8.5564V12.1736H8.58725V10.3736ZM12.8237 6.13727C12.8237 8.47714 10.9272 10.3736 8.58725 10.3736V12.1736C11.9212 12.1736 14.6237 9.47128 14.6237 6.13727H12.8237ZM8.58725 1.9C10.9271 1.9 12.8237 3.79734 12.8237 6.13727H14.6237C14.6237 2.80372 11.9217 0.1 8.58725 0.1V1.9ZM3.86265 16.1869C5.08365 15.3855 6.76576 14.8619 8.59455 14.8619V13.0619C6.43988 13.0619 4.40965 13.6748 2.87495 14.6821L3.86265 16.1869ZM1.9 19.1366C1.9 18.0582 2.63596 16.992 3.86265 16.1869L2.87495 14.6821C1.3861 15.6593 0.1 17.208 0.1 19.1366H1.9ZM2.40981 20.454C2.08243 20.1043 1.9 19.6736 1.9 19.1366H0.1C0.1 20.1327 0.457694 21.0025 1.09566 21.6841L2.40981 20.454ZM3.83677 21.2953C3.22518 21.0842 2.74046 20.8073 2.4098 20.454L1.09567 21.6841C1.69734 22.3269 2.47878 22.7308 3.24961 22.9968L3.83677 21.2953ZM8.59455 21.8619C6.75216 21.8619 5.06181 21.718 3.83677 21.2953L3.24961 22.9968C4.77113 23.5218 6.712 23.6619 8.59455 23.6619V21.8619ZM13.3592 21.2848C12.1368 21.7126 10.4467 21.8619 8.59455 21.8619V23.6619C10.4901 23.6619 12.4328 23.5161 13.9538 22.9838L13.3592 21.2848ZM14.7817 20.4368C14.4524 20.7919 13.9694 21.0713 13.3592 21.2849L13.9538 22.9838C14.7246 22.714 15.5032 22.306 16.1015 21.6607L14.7817 20.4368ZM15.2891 19.1161C15.2891 19.6531 15.1077 20.0851 14.7816 20.4368L16.1016 21.6607C16.7351 20.9774 17.0891 20.1086 17.0891 19.1161H15.2891ZM13.3194 16.1769C14.5488 16.9772 15.2891 18.0383 15.2891 19.1161H17.0891C17.0891 17.181 15.7904 15.6376 14.3014 14.6684L13.3194 16.1769ZM8.59455 14.8619C10.4135 14.8619 12.0959 15.3804 13.3194 16.1769L14.3014 14.6684C12.7653 13.6685 10.7371 13.0619 8.59455 13.0619V14.8619Z" fill="black"/>
</svg>
